<?xml version="1.0" encoding="utf-8" standalone="no"?>
<!DOCTYPE svg PUBLIC "-//W3C//DTD SVG 1.1//EN"
  "http://www.w3.org/Graphics/SVG/1.1/DTD/svg11.dtd">
<svg xmlns:xlink="http://www.w3.org/1999/xlink" width="460.8pt" height="345.6pt" viewBox="0 0 460.8 345.6" xmlns="http://www.w3.org/2000/svg" version="1.1">
 <metadata>
  <rdf:RDF xmlns:dc="http://purl.org/dc/elements/1.1/" xmlns:cc="http://creativecommons.org/ns#" xmlns:rdf="http://www.w3.org/1999/02/22-rdf-syntax-ns#">
   <cc:Work>
    <dc:type rdf:resource="http://purl.org/dc/dcmitype/StillImage"/>
    <dc:date>2023-02-09T22:14:08.794789</dc:date>
    <dc:format>image/svg+xml</dc:format>
    <dc:creator>
     <cc:Agent>
      <dc:title>Matplotlib v3.6.3, https://matplotlib.org/</dc:title>
     </cc:Agent>
    </dc:creator>
   </cc:Work>
  </rdf:RDF>
 </metadata>
 <defs>
  <style type="text/css">*{stroke-linejoin: round; stroke-linecap: butt}</style>
 </defs>
 <g id="figure_1">
  <g id="patch_1">
   <path d="M 0 345.6
L 460.8 345.6
L 460.8 0
L 0 0
z
"/>
  </g>
  <g id="axes_1">
   <g id="patch_2">
    <path d="M 57.6 307.584
L 414.72 307.584
L 414.72 41.472
L 57.6 41.472
z
"/>
   </g>
   <g id="matplotlib.axis_1">
    <g id="xtick_1">
     <g id="line2d_1">
      <defs>
       <path id="m47fd9b4c1c" d="M 0 0
L 0 3.5
" style="stroke: #ffffff; stroke-width: 0.8"/>
      </defs>
      <g>
       <use xlink:href="#m47fd9b4c1c" x="103.338909" y="307.584" style="fill: #ffffff; stroke: #ffffff; stroke-width: 0.8"/>
      </g>
     </g>
     <g id="text_1">
      <!-- 05 -->
      <g style="fill: #ffffff" transform="translate(96.976409 322.182437) scale(0.1 -0.1)">
       <defs>
        <path id="DejaVuSans-30" d="M 2034 4250
Q 1547 4250 1301 3770
Q 1056 3291 1056 2328
Q 1056 1369 1301 889
Q 1547 409 2034 409
Q 2525 409 2770 889
Q 3016 1369 3016 2328
Q 3016 3291 2770 3770
Q 2525 4250 2034 4250
z
M 2034 4750
Q 2819 4750 3233 4129
Q 3647 3509 3647 2328
Q 3647 1150 3233 529
Q 2819 -91 2034 -91
Q 1250 -91 836 529
Q 422 1150 422 2328
Q 422 3509 836 4129
Q 1250 4750 2034 4750
z
" transform="scale(0.015625)"/>
        <path id="DejaVuSans-35" d="M 691 4666
L 3169 4666
L 3169 4134
L 1269 4134
L 1269 2991
Q 1406 3038 1543 3061
Q 1681 3084 1819 3084
Q 2600 3084 3056 2656
Q 3513 2228 3513 1497
Q 3513 744 3044 326
Q 2575 -91 1722 -91
Q 1428 -91 1123 -41
Q 819 9 494 109
L 494 744
Q 775 591 1075 516
Q 1375 441 1709 441
Q 2250 441 2565 725
Q 2881 1009 2881 1497
Q 2881 1984 2565 2268
Q 2250 2553 1709 2553
Q 1456 2553 1204 2497
Q 953 2441 691 2322
L 691 4666
z
" transform="scale(0.015625)"/>
       </defs>
       <use xlink:href="#DejaVuSans-30"/>
       <use xlink:href="#DejaVuSans-35" x="63.623047"/>
      </g>
     </g>
    </g>
    <g id="xtick_2">
     <g id="line2d_2">
      <g>
       <use xlink:href="#m47fd9b4c1c" x="149.485068" y="307.584" style="fill: #ffffff; stroke: #ffffff; stroke-width: 0.8"/>
      </g>
     </g>
     <g id="text_2">
      <!-- 09 -->
      <g style="fill: #ffffff" transform="translate(143.122568 322.182437) scale(0.1 -0.1)">
       <defs>
        <path id="DejaVuSans-39" d="M 703 97
L 703 672
Q 941 559 1184 500
Q 1428 441 1663 441
Q 2288 441 2617 861
Q 2947 1281 2994 2138
Q 2813 1869 2534 1725
Q 2256 1581 1919 1581
Q 1219 1581 811 2004
Q 403 2428 403 3163
Q 403 3881 828 4315
Q 1253 4750 1959 4750
Q 2769 4750 3195 4129
Q 3622 3509 3622 2328
Q 3622 1225 3098 567
Q 2575 -91 1691 -91
Q 1453 -91 1209 -44
Q 966 3 703 97
z
M 1959 2075
Q 2384 2075 2632 2365
Q 2881 2656 2881 3163
Q 2881 3666 2632 3958
Q 2384 4250 1959 4250
Q 1534 4250 1286 3958
Q 1038 3666 1038 3163
Q 1038 2656 1286 2365
Q 1534 2075 1959 2075
z
" transform="scale(0.015625)"/>
       </defs>
       <use xlink:href="#DejaVuSans-30"/>
       <use xlink:href="#DejaVuSans-39" x="63.623047"/>
      </g>
     </g>
    </g>
    <g id="xtick_3">
     <g id="line2d_3">
      <g>
       <use xlink:href="#m47fd9b4c1c" x="195.631228" y="307.584" style="fill: #ffffff; stroke: #ffffff; stroke-width: 0.8"/>
      </g>
     </g>
     <g id="text_3">
      <!-- 13 -->
      <g style="fill: #ffffff" transform="translate(189.268728 322.182437) scale(0.1 -0.1)">
       <defs>
        <path id="DejaVuSans-31" d="M 794 531
L 1825 531
L 1825 4091
L 703 3866
L 703 4441
L 1819 4666
L 2450 4666
L 2450 531
L 3481 531
L 3481 0
L 794 0
L 794 531
z
" transform="scale(0.015625)"/>
        <path id="DejaVuSans-33" d="M 2597 2516
Q 3050 2419 3304 2112
Q 3559 1806 3559 1356
Q 3559 666 3084 287
Q 2609 -91 1734 -91
Q 1441 -91 1130 -33
Q 819 25 488 141
L 488 750
Q 750 597 1062 519
Q 1375 441 1716 441
Q 2309 441 2620 675
Q 2931 909 2931 1356
Q 2931 1769 2642 2001
Q 2353 2234 1838 2234
L 1294 2234
L 1294 2753
L 1863 2753
Q 2328 2753 2575 2939
Q 2822 3125 2822 3475
Q 2822 3834 2567 4026
Q 2313 4219 1838 4219
Q 1578 4219 1281 4162
Q 984 4106 628 3988
L 628 4550
Q 988 4650 1302 4700
Q 1616 4750 1894 4750
Q 2613 4750 3031 4423
Q 3450 4097 3450 3541
Q 3450 3153 3228 2886
Q 3006 2619 2597 2516
z
" transform="scale(0.015625)"/>
       </defs>
       <use xlink:href="#DejaVuSans-31"/>
       <use xlink:href="#DejaVuSans-33" x="63.623047"/>
      </g>
     </g>
    </g>
    <g id="xtick_4">
     <g id="line2d_4">
      <g>
       <use xlink:href="#m47fd9b4c1c" x="241.777387" y="307.584" style="fill: #ffffff; stroke: #ffffff; stroke-width: 0.8"/>
      </g>
     </g>
     <g id="text_4">
      <!-- 17 -->
      <g style="fill: #ffffff" transform="translate(235.414887 322.182437) scale(0.1 -0.1)">
       <defs>
        <path id="DejaVuSans-37" d="M 525 4666
L 3525 4666
L 3525 4397
L 1831 0
L 1172 0
L 2766 4134
L 525 4134
L 525 4666
z
" transform="scale(0.015625)"/>
       </defs>
       <use xlink:href="#DejaVuSans-31"/>
       <use xlink:href="#DejaVuSans-37" x="63.623047"/>
      </g>
     </g>
    </g>
    <g id="xtick_5">
     <g id="line2d_5">
      <g>
       <use xlink:href="#m47fd9b4c1c" x="287.923546" y="307.584" style="fill: #ffffff; stroke: #ffffff; stroke-width: 0.8"/>
      </g>
     </g>
     <g id="text_5">
      <!-- 21 -->
      <g style="fill: #ffffff" transform="translate(281.561046 322.182437) scale(0.1 -0.1)">
       <defs>
        <path id="DejaVuSans-32" d="M 1228 531
L 3431 531
L 3431 0
L 469 0
L 469 531
Q 828 903 1448 1529
Q 2069 2156 2228 2338
Q 2531 2678 2651 2914
Q 2772 3150 2772 3378
Q 2772 3750 2511 3984
Q 2250 4219 1831 4219
Q 1534 4219 1204 4116
Q 875 4013 500 3803
L 500 4441
Q 881 4594 1212 4672
Q 1544 4750 1819 4750
Q 2544 4750 2975 4387
Q 3406 4025 3406 3419
Q 3406 3131 3298 2873
Q 3191 2616 2906 2266
Q 2828 2175 2409 1742
Q 1991 1309 1228 531
z
" transform="scale(0.015625)"/>
       </defs>
       <use xlink:href="#DejaVuSans-32"/>
       <use xlink:href="#DejaVuSans-31" x="63.623047"/>
      </g>
     </g>
    </g>
    <g id="xtick_6">
     <g id="line2d_6">
      <g>
       <use xlink:href="#m47fd9b4c1c" x="334.069706" y="307.584" style="fill: #ffffff; stroke: #ffffff; stroke-width: 0.8"/>
      </g>
     </g>
     <g id="text_6">
      <!-- 25 -->
      <g style="fill: #ffffff" transform="translate(327.707206 322.182437) scale(0.1 -0.1)">
       <use xlink:href="#DejaVuSans-32"/>
       <use xlink:href="#DejaVuSans-35" x="63.623047"/>
      </g>
     </g>
    </g>
    <g id="xtick_7">
     <g id="line2d_7">
      <g>
       <use xlink:href="#m47fd9b4c1c" x="380.215865" y="307.584" style="fill: #ffffff; stroke: #ffffff; stroke-width: 0.8"/>
      </g>
     </g>
     <g id="text_7">
      <!-- 29 -->
      <g style="fill: #ffffff" transform="translate(373.853365 322.182437) scale(0.1 -0.1)">
       <use xlink:href="#DejaVuSans-32"/>
       <use xlink:href="#DejaVuSans-39" x="63.623047"/>
      </g>
     </g>
    </g>
    <g id="text_8">
     <!-- 2023-Jan -->
     <g style="fill: #ffffff" transform="translate(369.684063 334.860562) scale(0.1 -0.1)">
      <defs>
       <path id="DejaVuSans-2d" d="M 313 2009
L 1997 2009
L 1997 1497
L 313 1497
L 313 2009
z
" transform="scale(0.015625)"/>
       <path id="DejaVuSans-4a" d="M 628 4666
L 1259 4666
L 1259 325
Q 1259 -519 939 -900
Q 619 -1281 -91 -1281
L -331 -1281
L -331 -750
L -134 -750
Q 284 -750 456 -515
Q 628 -281 628 325
L 628 4666
z
" transform="scale(0.015625)"/>
       <path id="DejaVuSans-61" d="M 2194 1759
Q 1497 1759 1228 1600
Q 959 1441 959 1056
Q 959 750 1161 570
Q 1363 391 1709 391
Q 2188 391 2477 730
Q 2766 1069 2766 1631
L 2766 1759
L 2194 1759
z
M 3341 1997
L 3341 0
L 2766 0
L 2766 531
Q 2569 213 2275 61
Q 1981 -91 1556 -91
Q 1019 -91 701 211
Q 384 513 384 1019
Q 384 1609 779 1909
Q 1175 2209 1959 2209
L 2766 2209
L 2766 2266
Q 2766 2663 2505 2880
Q 2244 3097 1772 3097
Q 1472 3097 1187 3025
Q 903 2953 641 2809
L 641 3341
Q 956 3463 1253 3523
Q 1550 3584 1831 3584
Q 2591 3584 2966 3190
Q 3341 2797 3341 1997
z
" transform="scale(0.015625)"/>
       <path id="DejaVuSans-6e" d="M 3513 2113
L 3513 0
L 2938 0
L 2938 2094
Q 2938 2591 2744 2837
Q 2550 3084 2163 3084
Q 1697 3084 1428 2787
Q 1159 2491 1159 1978
L 1159 0
L 581 0
L 581 3500
L 1159 3500
L 1159 2956
Q 1366 3272 1645 3428
Q 1925 3584 2291 3584
Q 2894 3584 3203 3211
Q 3513 2838 3513 2113
z
" transform="scale(0.015625)"/>
      </defs>
      <use xlink:href="#DejaVuSans-32"/>
      <use xlink:href="#DejaVuSans-30" x="63.623047"/>
      <use xlink:href="#DejaVuSans-32" x="127.246094"/>
      <use xlink:href="#DejaVuSans-33" x="190.869141"/>
      <use xlink:href="#DejaVuSans-2d" x="254.492188"/>
      <use xlink:href="#DejaVuSans-4a" x="296.201172"/>
      <use xlink:href="#DejaVuSans-61" x="325.693359"/>
      <use xlink:href="#DejaVuSans-6e" x="386.972656"/>
     </g>
    </g>
   </g>
   <g id="matplotlib.axis_2">
    <g id="ytick_1">
     <g id="line2d_8">
      <defs>
       <path id="m5626931801" d="M 0 0
L -3.5 0
" style="stroke: #ffffff; stroke-width: 0.8"/>
      </defs>
      <g>
       <use xlink:href="#m5626931801" x="57.6" y="307.584" style="fill: #ffffff; stroke: #ffffff; stroke-width: 0.8"/>
      </g>
     </g>
     <g id="text_9">
      <!-- 0 -->
      <g style="fill: #ffffff" transform="translate(44.2375 311.383219) scale(0.1 -0.1)">
       <use xlink:href="#DejaVuSans-30"/>
      </g>
     </g>
    </g>
    <g id="ytick_2">
     <g id="line2d_9">
      <g>
       <use xlink:href="#m5626931801" x="57.6" y="261.584667" style="fill: #ffffff; stroke: #ffffff; stroke-width: 0.8"/>
      </g>
     </g>
     <g id="text_10">
      <!-- 5 -->
      <g style="fill: #ffffff" transform="translate(44.2375 265.383886) scale(0.1 -0.1)">
       <use xlink:href="#DejaVuSans-35"/>
      </g>
     </g>
    </g>
    <g id="ytick_3">
     <g id="line2d_10">
      <g>
       <use xlink:href="#m5626931801" x="57.6" y="215.585334" style="fill: #ffffff; stroke: #ffffff; stroke-width: 0.8"/>
      </g>
     </g>
     <g id="text_11">
      <!-- 10 -->
      <g style="fill: #ffffff" transform="translate(37.875 219.384553) scale(0.1 -0.1)">
       <use xlink:href="#DejaVuSans-31"/>
       <use xlink:href="#DejaVuSans-30" x="63.623047"/>
      </g>
     </g>
    </g>
    <g id="ytick_4">
     <g id="line2d_11">
      <g>
       <use xlink:href="#m5626931801" x="57.6" y="169.586001" style="fill: #ffffff; stroke: #ffffff; stroke-width: 0.8"/>
      </g>
     </g>
     <g id="text_12">
      <!-- 15 -->
      <g style="fill: #ffffff" transform="translate(37.875 173.38522) scale(0.1 -0.1)">
       <use xlink:href="#DejaVuSans-31"/>
       <use xlink:href="#DejaVuSans-35" x="63.623047"/>
      </g>
     </g>
    </g>
    <g id="ytick_5">
     <g id="line2d_12">
      <g>
       <use xlink:href="#m5626931801" x="57.6" y="123.586669" style="fill: #ffffff; stroke: #ffffff; stroke-width: 0.8"/>
      </g>
     </g>
     <g id="text_13">
      <!-- 20 -->
      <g style="fill: #ffffff" transform="translate(37.875 127.385887) scale(0.1 -0.1)">
       <use xlink:href="#DejaVuSans-32"/>
       <use xlink:href="#DejaVuSans-30" x="63.623047"/>
      </g>
     </g>
    </g>
    <g id="ytick_6">
     <g id="line2d_13">
      <g>
       <use xlink:href="#m5626931801" x="57.6" y="77.587336" style="fill: #ffffff; stroke: #ffffff; stroke-width: 0.8"/>
      </g>
     </g>
     <g id="text_14">
      <!-- 25 -->
      <g style="fill: #ffffff" transform="translate(37.875 81.386555) scale(0.1 -0.1)">
       <use xlink:href="#DejaVuSans-32"/>
       <use xlink:href="#DejaVuSans-35" x="63.623047"/>
      </g>
     </g>
    </g>
    <g id="text_15">
     <!-- kgeCO2 -->
     <g style="fill: #ffffff" transform="translate(31.795312 194.282688) rotate(-90) scale(0.1 -0.1)">
      <defs>
       <path id="DejaVuSans-6b" d="M 581 4863
L 1159 4863
L 1159 1991
L 2875 3500
L 3609 3500
L 1753 1863
L 3688 0
L 2938 0
L 1159 1709
L 1159 0
L 581 0
L 581 4863
z
" transform="scale(0.015625)"/>
       <path id="DejaVuSans-67" d="M 2906 1791
Q 2906 2416 2648 2759
Q 2391 3103 1925 3103
Q 1463 3103 1205 2759
Q 947 2416 947 1791
Q 947 1169 1205 825
Q 1463 481 1925 481
Q 2391 481 2648 825
Q 2906 1169 2906 1791
z
M 3481 434
Q 3481 -459 3084 -895
Q 2688 -1331 1869 -1331
Q 1566 -1331 1297 -1286
Q 1028 -1241 775 -1147
L 775 -588
Q 1028 -725 1275 -790
Q 1522 -856 1778 -856
Q 2344 -856 2625 -561
Q 2906 -266 2906 331
L 2906 616
Q 2728 306 2450 153
Q 2172 0 1784 0
Q 1141 0 747 490
Q 353 981 353 1791
Q 353 2603 747 3093
Q 1141 3584 1784 3584
Q 2172 3584 2450 3431
Q 2728 3278 2906 2969
L 2906 3500
L 3481 3500
L 3481 434
z
" transform="scale(0.015625)"/>
       <path id="DejaVuSans-65" d="M 3597 1894
L 3597 1613
L 953 1613
Q 991 1019 1311 708
Q 1631 397 2203 397
Q 2534 397 2845 478
Q 3156 559 3463 722
L 3463 178
Q 3153 47 2828 -22
Q 2503 -91 2169 -91
Q 1331 -91 842 396
Q 353 884 353 1716
Q 353 2575 817 3079
Q 1281 3584 2069 3584
Q 2775 3584 3186 3129
Q 3597 2675 3597 1894
z
M 3022 2063
Q 3016 2534 2758 2815
Q 2500 3097 2075 3097
Q 1594 3097 1305 2825
Q 1016 2553 972 2059
L 3022 2063
z
" transform="scale(0.015625)"/>
       <path id="DejaVuSans-43" d="M 4122 4306
L 4122 3641
Q 3803 3938 3442 4084
Q 3081 4231 2675 4231
Q 1875 4231 1450 3742
Q 1025 3253 1025 2328
Q 1025 1406 1450 917
Q 1875 428 2675 428
Q 3081 428 3442 575
Q 3803 722 4122 1019
L 4122 359
Q 3791 134 3420 21
Q 3050 -91 2638 -91
Q 1578 -91 968 557
Q 359 1206 359 2328
Q 359 3453 968 4101
Q 1578 4750 2638 4750
Q 3056 4750 3426 4639
Q 3797 4528 4122 4306
z
" transform="scale(0.015625)"/>
       <path id="DejaVuSans-4f" d="M 2522 4238
Q 1834 4238 1429 3725
Q 1025 3213 1025 2328
Q 1025 1447 1429 934
Q 1834 422 2522 422
Q 3209 422 3611 934
Q 4013 1447 4013 2328
Q 4013 3213 3611 3725
Q 3209 4238 2522 4238
z
M 2522 4750
Q 3503 4750 4090 4092
Q 4678 3434 4678 2328
Q 4678 1225 4090 567
Q 3503 -91 2522 -91
Q 1538 -91 948 565
Q 359 1222 359 2328
Q 359 3434 948 4092
Q 1538 4750 2522 4750
z
" transform="scale(0.015625)"/>
      </defs>
      <use xlink:href="#DejaVuSans-6b"/>
      <use xlink:href="#DejaVuSans-67" x="57.910156"/>
      <use xlink:href="#DejaVuSans-65" x="121.386719"/>
      <use xlink:href="#DejaVuSans-43" x="182.910156"/>
      <use xlink:href="#DejaVuSans-4f" x="252.734375"/>
      <use xlink:href="#DejaVuSans-32" x="331.445312"/>
     </g>
    </g>
   </g>
   <g id="line2d_14">
    <path d="M 57.6 307.584
L 57.606276 306.860352
L 57.606276 306.860352
L 57.761431 306.793064
L 57.824856 306.009185
L 60.140442 305.94102
L 60.140442 305.919338
L 60.140976 305.787175
L 60.145116 305.787175
L 62.008721 305.769879
L 62.008721 305.704079
L 62.05225 304.752162
L 62.70799 304.682426
L 62.70799 304.677041
L 62.710927 304.02861
L 62.710927 304.02861
L 62.998006 304.027407
L 62.998006 303.940333
L 63.012961 303.782794
L 63.621299 303.708346
L 63.621299 303.686216
L 63.621967 303.560036
L 63.627041 303.560036
L 63.987424 303.46972
L 63.988893 303.343659
L 63.991831 303.343659
L 64.201732 303.263745
L 64.201732 303.253179
L 64.202533 303.131667
L 64.206405 303.131667
L 65.719775 303.056036
L 65.719775 303.032642
L 65.724849 302.693681
L 65.729255 302.693681
L 66.077754 302.612494
L 66.077754 302.590915
L 66.078556 302.445643
L 66.084698 302.445643
L 66.422382 302.385636
L 66.422382 302.347923
L 66.526264 301.961084
L 66.529736 301.961084
L 66.572998 301.900118
L 66.657385 301.152077
L 66.679951 301.152077
L 71.729858 301.05299
L 71.730392 300.932
L 71.733997 300.932
L 73.295436 300.89086
L 73.295436 300.83536
L 73.295836 300.674074
L 73.299976 300.674074
L 73.489314 300.618472
L 73.489314 300.570887
L 73.537249 300.418704
L 73.538584 300.418704
L 73.894428 300.349009
L 73.894428 300.317741
L 73.895095 300.182324
L 77.922469 300.136085
L 77.922469 300.08748
L 77.929012 299.778973
L 78.170158 299.772732
L 78.237721 298.702688
L 78.648177 298.649024
L 78.648177 298.593321
L 78.648577 298.487058
L 78.652316 298.487058
L 84.946139 298.384606
L 84.963631 297.985513
L 84.968838 297.985513
L 85.269536 297.891015
L 85.26967 297.748344
L 85.293437 297.748344
L 87.123394 297.642445
L 87.125263 297.507707
L 87.126866 297.507707
L 87.42249 297.424387
L 87.42249 297.415698
L 87.428498 297.296206
L 88.953218 297.225613
L 88.953218 297.191734
L 89.014505 295.64782
L 89.602949 295.647085
L 89.602949 295.538187
L 89.614566 294.542691
L 89.658629 294.542691
L 89.999251 294.44701
L 90.100329 294.275806
L 90.137182 294.269647
L 90.13865 293.387218
L 90.238927 293.387218
L 90.315704 293.29013
L 90.347617 293.14722
L 90.455772 293.073486
L 90.455772 293.041055
L 90.538824 292.901476
L 90.540426 292.901476
L 90.734171 292.86262
L 90.734171 292.80608
L 90.743117 291.916416
L 90.746722 291.916416
L 95.866729 291.808293
L 95.866729 291.808008
L 95.86713 291.679729
L 95.880082 291.679729
L 96.414448 291.663615
L 96.414448 291.600794
L 96.43234 290.348168
L 96.439951 290.348168
L 96.704597 290.289303
L 96.704597 290.237108
L 96.771226 290.123045
L 96.910893 290.020592
L 96.910893 290.015147
L 96.981928 289.135447
L 96.990741 289.135447
L 97.097828 289.076583
L 97.097828 289.04407
L 97.166059 288.915915
L 99.050494 288.817562
L 99.052497 288.675417
L 99.057971 288.675417
L 99.322484 288.647413
L 99.322484 288.644782
L 99.4038 286.385335
L 99.58259 286.3115
L 99.58259 286.28888
L 99.583525 286.114872
L 99.588065 286.114872
L 99.865262 286.005404
L 99.885691 285.79427
L 102.571275 285.725757
L 102.571275 285.704912
L 102.571943 285.558311
L 102.575014 285.558311
L 103.186557 285.471206
L 103.186557 285.451258
L 103.190162 285.228757
L 103.1931 285.228757
L 104.054468 285.175053
L 104.054468 285.129609
L 104.054735 285.011833
L 104.057806 285.011833
L 105.733809 284.907586
L 105.733809 284.907361
L 105.734343 284.786009
L 105.736346 284.786009
L 107.342649 284.679255
L 107.34345 284.501822
L 107.344385 284.501822
L 108.905022 284.452014
L 108.905022 284.392639
L 108.908093 283.627719
L 108.908761 283.627719
L 109.047627 283.396258
L 109.153645 282.986085
L 109.509222 282.903091
L 109.509222 282.88141
L 109.515898 282.747339
L 109.515898 282.747339
L 111.751503 282.698224
L 111.751503 282.653841
L 111.849911 281.613316
L 111.851647 281.613316
L 112.585766 281.525732
L 112.5863 281.275353
L 112.588303 281.275353
L 113.078606 281.273171
L 113.091825 280.385998
L 113.235364 280.384897
L 113.235364 280.300903
L 113.236032 280.029319
L 113.256995 280.029319
L 113.961338 279.928621
L 113.96521 279.80624
L 114.171106 279.702809
L 114.243342 279.574524
L 114.243609 279.574524
L 114.354168 279.469522
L 114.466062 279.120312
L 114.862096 279.094836
L 114.862096 279.023142
L 114.95997 278.728571
L 114.967981 278.728571
L 115.059179 278.651227
L 115.059179 278.623814
L 115.148106 277.985336
L 115.152379 277.985336
L 115.258798 277.877668
L 115.314345 277.723882
L 115.433315 277.618289
L 115.513697 276.542625
L 115.601022 276.448576
L 115.709845 276.313951
L 115.711314 276.313951
L 115.83883 276.217393
L 115.83883 276.216516
L 115.861396 276.075997
L 118.228523 276.008199
L 118.228523 275.979745
L 118.22919 275.850291
L 118.232662 275.850291
L 118.763556 275.824999
L 118.763556 275.740394
L 118.764491 275.108155
L 118.769298 275.108155
L 119.059581 275.047311
L 119.059581 275.018205
L 119.122337 274.871477
L 120.565874 274.805131
L 120.627429 273.078802
L 120.631434 273.078802
L 120.699265 272.97792
L 120.699265 272.972066
L 120.754411 271.384412
L 120.798607 271.384412
L 122.179654 271.273882
L 122.180589 270.96564
L 122.209964 270.96564
L 122.591578 270.856518
L 122.678235 269.744816
L 122.700935 269.744816
L 123.411687 269.723808
L 123.413556 268.785432
L 123.415426 268.785432
L 123.647492 268.709842
L 123.647492 268.681185
L 123.707177 268.650304
L 123.819605 268.570105
L 123.82054 267.688127
L 123.846444 267.688127
L 124.71115 267.615617
L 124.71115 267.591671
L 124.711951 267.538416
L 124.715022 267.538416
L 125.067795 267.337165
L 125.068329 267.224657
L 125.116531 267.224657
L 126.123976 267.156267
L 126.123976 267.149924
L 126.127314 266.378034
L 126.128248 266.378034
L 126.633239 266.336303
L 126.633239 266.270462
L 126.635642 265.494064
L 126.639381 265.494064
L 127.187767 265.428652
L 127.187767 265.416923
L 127.18937 264.704
L 127.19431 264.704
L 127.77768 264.586005
L 127.781018 264.475645
L 128.287744 264.469159
L 128.28908 263.661154
L 128.292284 263.661154
L 129.432185 263.551151
L 129.432185 263.550804
L 129.43312 263.306441
L 129.436458 263.306441
L 129.875754 263.260263
L 129.879627 261.837767
L 129.885502 261.837767
L 130.624161 261.802195
L 130.624161 261.737334
L 130.642587 261.595628
L 131.113128 261.589285
L 131.114597 260.740432
L 131.117535 260.740432
L 131.282304 260.731967
L 131.282304 260.72595
L 131.319958 259.879816
L 131.608639 259.775329
L 131.60944 259.628339
L 131.611576 259.628339
L 133.046701 259.571758
L 133.046701 259.520379
L 133.047635 259.397005
L 133.05084 259.397005
L 133.164202 259.332959
L 133.164202 259.305383
L 133.192777 258.92209
L 133.215476 258.92209
L 139.429852 258.816814
L 139.429852 258.816814
L 140.283877 258.682033
L 140.284411 258.540003
L 140.755486 258.446347
L 140.755486 258.446225
L 140.760159 258.223508
L 140.760159 258.223508
L 145.403617 258.136782
L 145.444342 257.04746
L 145.444342 257.04746
L 146.109829 256.941275
L 146.113968 256.744922
L 146.113968 256.744922
L 146.763833 256.633841
L 146.764368 256.476643
L 146.767305 256.476643
L 150.161238 256.385233
L 150.161238 256.371934
L 150.250833 256.014372
L 150.493314 255.901986
L 150.572093 255.824627
L 150.572093 255.824627
L 150.61856 255.742755
L 150.61856 255.729415
L 150.7394 255.123217
L 150.7394 255.123217
L 150.874126 255.027822
L 150.949835 254.860476
L 151.088167 254.770212
L 151.089235 254.529878
L 151.089902 254.529878
L 151.604507 254.420083
L 151.608246 254.175949
L 152.107628 254.168912
L 152.107628 254.081736
L 152.108162 253.939345
L 152.112168 253.939345
L 153.336857 253.829693
L 153.355818 252.786917
L 153.937852 252.741697
L 153.937852 252.703025
L 153.941858 252.480014
L 156.963657 252.37449
L 156.969799 252.107232
L 157.449553 252.054527
L 157.449553 252.017303
L 157.454494 251.558646
L 157.459835 251.558646
L 157.911816 251.451033
L 158.008088 250.366158
L 158.029452 250.25622
L 158.029452 250.256098
L 158.029852 250.073742
L 158.033724 250.073742
L 160.008155 250.01557
L 160.008155 250.001843
L 160.014831 249.726434
L 160.697677 249.626368
L 160.804764 248.95594
L 160.804764 248.95594
L 160.944297 248.939827
L 160.944297 248.933769
L 160.961922 248.086946
L 161.554505 247.979978
L 161.558645 247.68575
L 161.559713 247.68575
L 161.909948 247.597901
L 161.969767 247.422629
L 162.314261 247.315883
L 162.314261 247.31574
L 162.382626 246.658617
L 162.383961 246.658617
L 162.45286 246.552799
L 162.458869 245.707736
L 162.970135 245.648504
L 162.970135 245.619683
L 163.043173 245.272587
L 163.058662 245.272587
L 163.349746 245.206053
L 163.349746 245.180047
L 163.350413 244.996885
L 163.375249 244.996885
L 163.6431 244.937184
L 163.6431 244.889354
L 163.64577 244.772582
L 163.71053 244.772582
L 164.21779 244.678573
L 164.21779 244.669823
L 164.309121 243.202289
L 164.312593 243.202289
L 164.619967 243.107668
L 164.619967 243.107587
L 164.715971 242.109581
L 164.744546 242.015919
L 164.803029 241.361836
L 164.979683 241.282243
L 165.163813 241.178628
L 165.163813 241.178628
L 165.164882 240.068692
L 165.191854 240.068692
L 165.512847 240.020943
L 165.539819 239.351167
L 165.611655 239.351167
L 166.11224 239.343763
L 166.11224 239.330954
L 166.126527 237.41938
L 167.027419 237.396699
L 167.027419 237.351113
L 167.137443 235.951271
L 167.428794 235.864708
L 167.428794 235.855937
L 167.474192 234.662114
L 167.476062 234.662114
L 167.992402 234.640289
L 167.994004 233.372514
L 168.094949 233.372514
L 168.420349 233.288337
L 168.447989 231.877629
L 168.452128 231.877629
L 168.552672 231.789434
L 168.748419 231.717992
L 169.096518 231.641443
L 169.201869 229.99151
L 169.206276 229.99151
L 169.352485 229.905619
L 169.352485 229.881511
L 169.408032 229.760946
L 169.774156 229.710178
L 169.774156 229.653822
L 169.774691 229.536044
L 169.826899 229.536044
L 170.540589 229.527008
L 170.547265 228.626136
L 170.773723 228.537555
L 170.850767 228.476345
L 170.8509 228.476345
L 171.000047 228.46994
L 171.000047 228.373036
L 171.084302 226.821029
L 171.381661 226.792249
L 171.473526 226.706334
L 171.473526 226.706334
L 171.820691 226.637475
L 171.820691 226.611469
L 171.840452 226.428096
L 172.079061 226.353057
L 172.079061 226.329846
L 172.098956 226.307654
L 172.374284 226.096248
L 172.374284 226.096248
L 172.37602 225.198924
L 172.465749 225.198924
L 172.494857 225.196436
L 172.494857 225.189399
L 172.584052 224.337314
L 172.806103 224.234086
L 172.80637 224.149572
L 172.811044 224.149572
L 172.952179 224.07541
L 172.952179 224.075328
L 173.047917 222.861077
L 173.074889 222.813023
L 173.074889 222.763683
L 173.136177 222.632254
L 173.799127 222.565067
L 173.867892 220.418391
L 173.878975 220.418391
L 174.008227 220.325376
L 174.118919 220.243477
L 174.406131 220.163196
L 174.444052 219.22441
L 174.445788 219.22441
L 174.668106 219.22235
L 174.668106 219.132319
L 174.733533 218.810025
L 174.736872 218.810025
L 174.864655 218.73466
L 174.864655 218.711102
L 174.921803 218.582232
L 174.921803 218.582232
L 175.201671 218.537604
L 175.201671 218.499259
L 175.202205 218.293159
L 175.209282 218.293159
L 175.468854 218.192379
L 175.469255 218.061925
L 175.473127 218.061925
L 175.913759 218.046852
L 175.913759 217.985805
L 175.915094 217.21448
L 176.01684 217.21448
L 176.260256 217.106092
L 176.29791 215.689314
L 176.29791 215.689314
L 176.797826 215.603249
L 176.797826 215.603249
L 176.807974 214.480482
L 176.807974 214.480482
L 177.312564 214.432345
L 177.312698 214.260685
L 177.314834 214.260685
L 177.924909 214.184523
L 177.924909 214.161802
L 178.023851 211.349424
L 178.028391 211.349424
L 178.181009 210.732887
L 178.241496 210.732887
L 178.28823 210.41044
L 180.137815 210.301638
L 180.149431 209.958354
L 180.788214 209.946055
L 180.788214 209.847784
L 180.788882 209.81158
L 180.791285 209.81158
L 181.050724 209.716817
L 181.130438 208.832668
L 181.326452 208.786592
L 181.326452 208.786592
L 181.389877 206.75386
L 181.390811 206.75386
L 181.502705 206.651657
L 181.547436 206.583645
L 182.275279 206.51036
L 182.275279 206.487353
L 182.388909 205.919379
L 182.391312 205.786699
L 182.48064 205.525224
L 182.589997 205.42426
L 182.653688 204.148765
L 182.661299 204.148765
L 182.747156 204.075093
L 182.803637 203.079788
L 182.854777 203.079788
L 183.15908 202.972664
L 183.163352 202.87315
L 183.297144 202.803271
L 183.297144 202.778305
L 183.387808 200.499312
L 183.387808 200.499312
L 183.500235 200.307495
L 183.607322 198.829776
L 183.726426 198.829776
L 183.785177 198.199569
L 183.983462 198.122064
L 183.996948 198.057624
L 185.108942 197.9947
L 185.108942 197.971815
L 185.111212 197.182052
L 185.117754 197.182052
L 185.97939 197.080579
L 185.97979 196.978692
L 185.983128 196.978692
L 186.992709 196.920215
L 186.992709 196.920215
L 187.054131 196.020172
L 188.527977 195.949436
L 188.527977 195.918678
L 188.529713 195.811562
L 188.541597 195.811562
L 189.225243 195.728992
L 189.225243 195.720262
L 189.234056 195.489756
L 189.355029 195.3902
L 189.355029 195.390057
L 189.355697 195.297524
L 189.36945 195.297524
L 189.676424 195.248695
L 189.676424 195.198601
L 189.686304 195.046517
L 190.006897 194.968174
L 190.006897 194.948572
L 190.007298 194.799786
L 190.017713 194.799786
L 190.320948 194.786345
L 190.320948 194.77631
L 190.328959 194.481916
L 190.54834 194.465966
L 190.54834 194.414566
L 190.570639 194.257945
L 190.572241 194.257945
L 191.760345 194.178622
L 191.763282 193.296973
L 191.788652 193.296973
L 192.227414 193.22791
L 192.227414 193.203699
L 192.227948 193.102642
L 192.23142 193.102642
L 192.71064 193.07784
L 192.71064 193.00586
L 192.711308 192.349586
L 193.801938 192.279544
L 193.841462 191.213971
L 193.85695 191.213971
L 194.023856 191.213971
L 194.054567 190.321011
L 194.171535 190.22321
L 194.171535 190.22321
L 194.28236 189.372849
L 194.332699 189.288141
L 194.332699 189.288141
L 194.360472 188.447996
L 194.537927 188.341838
L 194.649019 186.924394
L 194.768524 185.065767
L 194.773064 185.065767
L 194.993246 184.050392
L 194.993246 184.050392
L 195.095793 183.964308
L 195.449767 183.520346
L 195.486887 182.568267
L 195.912297 182.512441
L 195.912297 182.492493
L 195.916704 182.421055
L 196.063047 182.34029
L 196.063047 182.313673
L 196.158116 181.988883
L 196.158116 181.988883
L 196.998121 181.961654
L 196.998121 181.961613
L 197.001592 181.628177
L 197.662807 181.536209
L 197.680432 181.336405
L 199.885861 181.225543
L 199.885861 181.225543
L 199.893605 181.12039
L 200.054369 181.044433
L 200.056505 180.22445
L 200.064383 180.22445
L 201.074765 180.193732
L 201.074765 180.190265
L 201.089854 180.082222
L 202.191833 180.01528
L 202.191833 179.976608
L 202.290909 179.81695
L 202.551816 179.708032
L 202.647019 179.044677
L 202.8194 178.943306
L 202.898847 178.874216
L 202.946382 178.775027
L 202.973087 178.640411
L 203.608798 178.550461
L 203.608798 178.541507
L 203.609466 178.432995
L 203.627625 178.432995
L 204.66124 178.37619
L 204.66124 178.328992
L 204.702633 177.288793
L 204.71198 177.288793
L 205.001729 177.288793
L 205.001729 177.231213
L 205.104543 176.336481
L 205.104676 176.336481
L 205.182388 176.305723
L 205.188663 175.455741
L 205.195206 175.455741
L 205.516734 175.367403
L 205.516734 175.345477
L 205.51887 174.597473
L 205.529819 174.597473
L 205.906225 174.523025
L 205.907961 173.763394
L 205.912635 173.763394
L 206.712581 173.659228
L 206.712581 173.658351
L 206.716721 173.524671
L 207.791462 173.513657
L 207.791462 173.484326
L 207.794266 172.671301
L 207.79974 172.671301
L 208.151711 172.583126
L 208.18309 172.420689
L 209.293215 172.414162
L 209.293215 172.331128
L 209.300024 171.786016
L 209.615677 171.711425
L 209.615677 171.698025
L 209.68511 171.327237
L 209.68511 171.327237
L 209.930929 171.326605
L 209.930929 171.303536
L 209.980066 170.30251
L 211.591977 170.2012
L 211.592778 170.1055
L 211.603861 170.1055
L 211.900553 169.998478
L 211.900553 169.998397
L 211.92619 169.901121
L 213.052738 169.800138
L 213.052738 169.794855
L 213.053406 169.574585
L 213.057011 169.574585
L 213.761888 169.477415
L 213.761888 169.467074
L 213.832923 169.258611
L 213.952027 169.209659
L 213.952027 169.163094
L 213.958837 169.029484
L 214.240708 168.984612
L 214.240708 168.946123
L 214.241375 168.779234
L 214.245515 168.779234
L 214.398801 168.697484
L 214.398801 168.668847
L 214.501215 168.306338
L 215.184995 168.236724
L 215.184995 168.2139
L 215.187131 168.117202
L 215.188867 168.117202
L 215.497443 168.018706
L 215.497844 167.91964
L 215.518139 167.91964
L 216.084818 167.88309
L 216.084818 167.813863
L 216.085486 167.668734
L 216.088824 167.668734
L 216.249989 167.578499
L 216.249989 167.578377
L 216.340118 167.475836
L 216.341587 167.475836
L 216.374701 167.40043
L 216.374701 167.376402
L 216.375368 167.285357
L 216.435187 167.285357
L 216.529189 167.189941
L 216.605431 166.866589
L 218.49267 166.780536
L 218.493338 166.669556
L 218.543543 166.669556
L 219.010747 166.623275
L 219.010747 166.568918
L 219.014752 166.479301
L 219.014752 166.479301
L 221.258636 166.373055
L 221.259037 166.300399
L 221.262642 166.300399
L 221.829187 166.246266
L 221.829187 166.196967
L 221.833327 166.106371
L 222.213338 166.009038
L 222.213872 165.912749
L 222.217611 165.912749
L 222.616449 165.80432
L 222.616449 165.803851
L 222.616983 165.700069
L 222.62139 165.700069
L 223.081116 165.624519
L 223.081116 165.594353
L 223.081383 165.493784
L 223.084854 165.493784
L 223.510531 165.398613
L 223.607604 165.10471
L 223.608805 165.10471
L 224.16507 165.037014
L 224.16507 165.004563
L 224.200988 164.915664
L 224.636546 164.821676
L 224.637213 164.717811
L 224.640685 164.717811
L 225.015489 164.640039
L 225.015489 164.618826
L 225.064092 164.318484
L 225.067564 164.318484
L 225.330474 164.23082
L 225.330474 164.230677
L 225.331008 164.128815
L 225.349835 164.128815
L 225.463598 164.055836
L 225.463598 164.027138
L 225.563742 163.933283
L 225.565077 163.933283
L 227.296626 163.890531
L 227.296626 163.837194
L 227.29716 163.51899
L 227.301032 163.51899
L 227.521215 163.443482
L 227.521215 163.411969
L 227.559136 163.287815
L 227.560337 163.287815
L 228.3711 163.200374
L 228.3715 163.09422
L 228.374972 163.09422
L 228.983978 162.993256
L 228.983978 162.99244
L 228.984513 162.894881
L 228.987851 162.894881
L 229.36853 162.835363
L 229.36853 162.805299
L 229.36893 162.711586
L 229.372402 162.711586
L 229.89435 162.610459
L 229.910106 161.778861
L 229.911976 161.778861
L 231.088596 161.728664
L 231.088596 161.684281
L 231.156159 161.58554
L 233.122178 161.501371
L 233.128721 161.352709
L 234.187439 161.267807
L 234.193581 161.022223
L 235.009284 160.97425
L 235.009284 160.922463
L 235.013556 160.801989
L 235.461665 160.703228
L 235.463401 160.600129
L 235.47435 160.600129
L 236.888378 160.503918
L 236.891716 160.398164
L 236.895588 160.398164
L 237.780857 160.303625
L 237.895822 159.170377
L 238.955608 159.167847
L 238.955608 159.147451
L 238.960014 158.340131
L 238.960014 158.340131
L 239.383021 158.238434
L 239.492645 157.293634
L 239.514276 157.25274
L 239.593189 156.797558
L 240.212076 156.701653
L 240.254804 156.382573
L 240.333183 156.339719
L 240.333183 156.272186
L 240.335186 156.035717
L 240.433594 156.035717
L 241.216716 155.937344
L 241.222324 155.507307
L 241.272396 155.507307
L 241.331414 155.446851
L 241.404986 153.3905
L 241.420342 153.3905
L 242.120145 153.283194
L 242.222559 152.364674
L 242.222559 152.364674
L 242.368902 152.266791
L 242.368902 152.260876
L 242.383723 151.695033
L 242.45636 151.695033
L 242.641292 151.67225
L 242.641292 151.613956
L 242.736629 150.873425
L 243.469813 150.790166
L 243.469813 150.789819
L 243.587449 149.839403
L 243.587449 149.839403
L 244.063197 149.744898
L 244.063865 149.593245
L 244.065334 149.593245
L 249.361193 149.497463
L 249.361193 149.496647
L 249.362528 149.373132
L 249.365599 149.373132
L 249.634785 149.281959
L 249.634785 149.275942
L 249.64066 148.402904
L 249.651342 148.402904
L 252.022208 148.297106
L 252.025813 148.18986
L 253.822923 148.147924
L 253.822923 148.102664
L 253.823991 147.534503
L 253.827864 147.534503
L 257.262655 147.485898
L 257.262655 147.439822
L 257.265058 147.341533
L 257.26626 147.341533
L 258.234047 147.244771
L 258.234047 147.244465
L 258.236718 147.115186
L 258.237519 147.115186
L 258.999144 147.100725
L 258.999144 147.090914
L 259.00315 146.838727
L 259.145621 146.769501
L 259.145621 146.737866
L 259.252975 146.56543
L 259.253242 146.56543
L 259.565556 146.461875
L 259.568227 146.260407
L 259.569562 146.260407
L 260.699449 146.239072
L 260.699449 146.159505
L 260.721747 145.543984
L 261.047281 145.459909
L 261.047281 145.449649
L 261.132202 145.327481
L 261.638261 145.279427
L 261.638261 145.233595
L 261.704089 144.699267
L 261.725854 144.699267
L 261.866856 144.613499
L 261.866856 144.598834
L 261.974343 144.269189
L 261.97461 144.269189
L 262.031358 144.165411
L 262.031892 144.057565
L 262.085436 144.057565
L 262.819555 143.956194
L 262.819555 143.95603
L 262.819822 143.828796
L 262.822893 143.828796
L 262.93452 143.746679
L 262.93452 143.72463
L 263.021978 143.626952
L 263.267263 143.625606
L 263.267263 143.573615
L 263.370745 142.732215
L 263.401723 142.663275
L 263.401723 142.635943
L 263.402391 142.517619
L 263.491585 142.517619
L 263.780533 142.418859
L 263.891625 141.827074
L 263.898034 141.717483
L 263.898569 141.610225
L 264.00165 141.610225
L 264.30849 141.555685
L 264.30849 141.50557
L 264.31076 141.401406
L 264.397017 141.401406
L 264.435872 141.298832
L 264.436273 141.199372
L 264.487146 141.199372
L 265.800095 141.102721
L 265.800095 141.089504
L 265.823595 140.817259
L 266.165552 140.713175
L 266.173029 140.581971
L 267.279683 140.478254
L 267.279683 140.478152
L 267.295572 140.164826
L 267.301314 140.164826
L 267.431634 140.116323
L 267.431634 140.065515
L 267.526036 139.943436
L 267.68947 139.849714
L 267.68947 139.84849
L 267.700152 139.734378
L 268.364838 139.63317
L 268.365373 139.53858
L 268.368844 139.53858
L 268.499431 139.517429
L 268.608655 138.711021
L 268.609723 138.711021
L 268.806405 138.613804
L 268.806405 138.604809
L 268.877707 138.280514
L 268.908284 138.280514
L 269.386436 138.207147
L 269.386436 138.183181
L 269.386837 138.070608
L 269.389775 138.070608
L 269.500066 138.06457
L 269.500066 138.01211
L 269.601144 136.94888
L 269.604349 136.94888
L 269.674449 136.83988
L 269.770854 136.625841
L 269.891561 136.529283
L 269.892095 136.405495
L 269.895833 136.405495
L 270.908886 136.398927
L 270.908886 136.295108
L 270.909954 135.556181
L 270.920636 135.556181
L 272.109006 135.507943
L 272.109006 135.451669
L 272.155874 134.356406
L 272.440682 134.253546
L 272.440682 134.253546
L 272.524536 133.628886
L 273.244768 133.514583
L 273.251177 133.373594
L 274.376524 133.28289
L 274.384402 133.15328
L 274.651719 133.049665
L 274.651719 133.049338
L 274.703126 132.627687
L 274.718615 132.627687
L 274.935859 132.534516
L 274.935859 132.525847
L 274.985798 131.964479
L 274.987133 131.964479
L 275.368212 131.942777
L 275.368212 131.86066
L 275.401594 131.588258
L 275.402662 131.588258
L 275.756636 131.494017
L 275.796293 130.852049
L 277.301518 130.780824
L 277.301518 130.77289
L 277.32435 130.190065
L 277.37509 130.190065
L 277.643875 130.090046
L 277.707166 129.688562
L 278.771091 129.673835
L 278.790185 128.610347
L 278.792455 128.610347
L 278.999285 128.562945
L 278.999285 128.507099
L 279.048422 128.372166
L 279.098494 128.372166
L 279.556484 128.285889
L 279.556484 128.275425
L 279.557819 127.63494
L 279.562092 127.63494
L 280.638969 127.555107
L 280.638969 127.533813
L 280.640171 126.973483
L 280.643509 126.973483
L 280.844197 126.95276
L 280.844197 126.933975
L 280.847134 126.169307
L 280.853143 126.169307
L 281.731602 126.05724
L 281.733205 125.170702
L 281.735207 125.170702
L 282.797798 125.130173
L 282.797798 125.081895
L 282.801136 124.9584
L 282.801136 124.9584
L 285.30566 124.880832
L 285.30566 124.872816
L 285.310333 124.302863
L 285.322617 124.302863
L 286.870036 124.238715
L 286.870036 124.215014
L 286.870303 124.034595
L 286.873641 124.034595
L 287.164324 123.940681
L 287.164324 123.940028
L 287.220939 123.469123
L 287.356734 123.367935
L 287.450468 123.255011
L 287.5191 123.16808
L 287.522972 122.998683
L 287.753436 122.908387
L 287.864261 122.697934
L 288.436014 122.592719
L 288.520001 122.191074
L 289.019651 122.08697
L 289.019651 122.086623
L 289.020052 121.997096
L 289.106042 121.997096
L 289.292042 121.922322
L 289.292042 121.888566
L 289.292576 121.75039
L 289.295914 121.75039
L 289.959665 121.70411
L 289.959665 121.651589
L 289.9602 121.541833
L 289.964606 121.541833
L 290.298151 121.525801
L 290.298151 121.518948
L 290.299753 120.878883
L 290.308032 120.878883
L 290.717552 120.787343
L 290.738115 120.566946
L 291.439921 120.471368
L 291.439921 120.461129
L 291.448333 119.709607
L 291.450603 119.709607
L 291.608029 119.61925
L 291.608563 119.479612
L 291.690146 119.479612
L 292.033973 119.372632
L 292.096863 118.846333
L 292.319849 118.82255
L 292.319849 118.818532
L 292.383941 117.928659
L 292.42934 117.928659
L 292.714816 117.833774
L 292.715216 117.699715
L 292.795732 117.699715
L 292.937134 117.628939
L 292.937134 117.596529
L 292.955027 117.495856
L 295.757177 117.400522
L 295.757177 117.4004
L 295.757711 117.290278
L 295.76105 117.290278
L 298.444497 117.198657
L 298.489094 116.879941
L 298.492432 116.879941
L 299.197844 116.869845
L 299.197844 116.798579
L 299.201048 116.038392
L 299.207858 116.038392
L 300.112488 116.000495
L 300.112488 115.948769
L 300.113156 115.743522
L 300.117028 115.743522
L 300.38114 115.671461
L 300.38114 115.663119
L 300.398365 114.923394
L 301.074534 114.8507
L 301.074534 114.828529
L 301.07854 114.728648
L 307.061117 114.657993
L 307.061117 114.61924
L 307.061651 114.521497
L 307.065256 114.521497
L 307.621387 114.420965
L 307.621387 114.414459
L 307.667319 114.123645
L 307.667319 114.123645
L 308.087789 114.031023
L 308.087789 114.027025
L 308.097403 113.848695
L 308.947688 113.794623
L 308.947688 113.755278
L 308.948089 113.598198
L 308.952095 113.598198
L 309.212468 113.490471
L 309.215806 113.281058
L 309.216874 113.281058
L 309.578192 113.18346
L 309.57886 112.973579
L 309.582332 112.973579
L 309.87395 112.890504
L 309.875285 112.695935
L 309.878223 112.695935
L 310.039387 112.614216
L 310.039387 112.588965
L 310.10882 112.4626
L 310.135391 112.4626
L 311.408683 112.440898
L 311.408683 112.372977
L 311.409218 112.190403
L 311.412155 112.190403
L 311.712719 112.114609
L 311.712719 112.079343
L 311.713387 111.909798
L 311.716992 111.909798
L 311.944652 111.856073
L 311.944652 111.800757
L 311.948524 111.672967
L 311.948524 111.672967
L 312.12945 111.591544
L 312.130518 111.39876
L 312.131186 111.39876
L 313.54775 111.353132
L 313.54775 111.288189
L 313.552023 111.139118
L 318.454118 111.041068
L 318.482425 110.807694
L 319.33231 110.722293
L 319.33231 110.715378
L 319.381581 110.572618
L 319.461829 110.513305
L 319.461829 110.478834
L 319.494276 110.239407
L 320.143607 110.152517
L 320.143607 110.141584
L 320.149749 109.831938
L 321.095772 109.722326
L 321.105519 108.933066
L 321.108457 108.933066
L 321.230098 108.856701
L 321.230098 108.856701
L 321.240646 107.96428
L 321.33665 107.96428
L 321.580333 107.947127
L 321.580333 107.899256
L 321.641888 106.962814
L 321.643357 106.962814
L 322.102816 106.890732
L 322.102816 106.890589
L 322.128986 105.580962
L 322.733453 105.554467
L 322.733453 105.554467
L 322.744536 104.710848
L 322.744536 104.710848
L 323.038691 104.697488
L 323.038691 104.624794
L 323.039892 103.860083
L 323.04737 103.860083
L 323.936912 103.773805
L 323.939849 103.609746
L 323.941585 103.609746
L 327.558103 103.51297
L 327.558905 103.380989
L 327.560106 103.380989
L 327.691495 103.310111
L 327.691495 103.288348
L 327.692029 103.136677
L 327.692296 103.136677
L 329.189108 103.061291
L 329.189108 103.038039
L 329.189509 102.913267
L 329.204597 102.913267
L 330.737996 102.895257
L 330.737996 102.872107
L 330.744138 102.000901
L 330.845216 102.000901
L 331.665459 101.985828
L 331.665459 101.953111
L 331.726346 100.852102
L 331.726346 100.852102
L 332.476622 100.815061
L 332.476622 100.773146
L 332.48944 100.185091
L 332.48944 100.185091
L 333.487404 100.079441
L 333.490475 99.88685
L 334.37294 99.877345
L 334.37294 99.82464
L 334.378014 98.979149
L 334.381753 98.979149
L 335.099582 98.96171
L 335.102653 98.131877
L 335.190379 98.131877
L 335.399479 98.059326
L 335.399479 98.030771
L 335.399612 98.008293
L 335.461968 98.008293
L 335.751984 97.674815
L 335.844517 97.214176
L 337.331582 97.1979
L 337.331582 97.174688
L 337.337591 96.241622
L 337.803859 96.171172
L 337.848857 95.835671
L 338.289889 95.768178
L 338.289889 95.736441
L 338.290557 95.52269
L 338.294696 95.52269
L 338.650406 95.425765
L 338.742004 95.098813
L 338.742004 95.098813
L 339.850527 94.996055
L 339.851061 94.811957
L 339.855067 94.811957
L 340.188879 94.756315
L 340.188879 94.723904
L 340.189279 94.555104
L 340.202231 94.555104
L 340.314392 94.461769
L 340.315193 94.364052
L 340.40105 94.364052
L 341.480998 94.258601
L 341.480998 94.258254
L 341.481398 94.136723
L 341.484603 94.136723
L 342.370406 94.062806
L 342.372943 93.444224
L 342.396978 93.444224
L 343.156867 93.341914
L 343.157134 93.214491
L 343.168083 93.214491
L 343.371575 93.129906
L 343.371575 93.105491
L 343.372109 92.977835
L 343.375981 92.977835
L 343.522725 92.871915
L 343.574399 91.802771
L 343.878836 91.700884
L 343.943996 90.083746
L 343.957615 90.083746
L 344.03733 90.05105
L 344.03733 89.987106
L 344.085799 89.724427
L 344.120248 89.724427
L 344.293564 89.423292
L 344.343368 89.349191
L 344.343368 89.32243
L 344.366735 89.137861
L 344.367002 89.137861
L 344.563017 89.131966
L 344.563017 89.030962
L 344.670637 88.356639
L 344.670905 88.356639
L 344.685592 88.252718
L 344.780662 87.261087
L 344.781463 87.261087
L 345.098451 87.254499
L 345.098451 87.152944
L 345.113139 86.434842
L 345.373378 86.338651
L 345.373378 86.338243
L 345.387933 85.85296
L 345.389802 85.85296
L 345.6909 85.749485
L 345.691568 85.580986
L 345.694238 85.580986
L 347.151528 85.525344
L 347.151528 85.498278
L 347.151795 85.334227
L 347.155133 85.334227
L 348.146154 85.290129
L 348.146821 84.569441
L 348.150426 84.569441
L 349.177232 84.467294
L 349.177232 84.466581
L 349.177766 84.374538
L 349.18057 84.374538
L 349.830034 84.303782
L 349.830034 84.279979
L 349.830569 84.152207
L 349.838847 84.152207
L 351.701518 84.074108
L 351.701518 84.074108
L 351.711933 83.268552
L 353.008725 83.259863
L 353.008725 83.185232
L 353.010327 82.407102
L 353.034095 82.407102
L 353.611723 82.310911
L 353.613459 82.08089
L 353.638962 82.08089
L 353.950208 81.978397
L 353.950208 81.978356
L 354.054758 81.869634
L 354.057028 81.869634
L 354.216724 81.822599
L 354.216724 81.776197
L 354.289228 81.638772
L 354.319938 81.638772
L 354.668438 81.584477
L 354.668438 81.542704
L 354.687131 81.410142
L 354.887285 81.312952
L 354.974477 81.174365
L 354.975945 81.174365
L 355.090643 81.066977
L 355.090643 81.066752
L 355.19773 80.924946
L 355.500564 80.822167
L 355.599907 79.799045
L 355.605248 79.799045
L 355.912755 79.783217
L 355.912755 79.731471
L 355.993938 79.136167
L 355.994873 79.136167
L 356.128264 79.085237
L 356.128264 79.079179
L 356.137077 78.484719
L 357.006857 78.460325
L 357.006857 78.460325
L 357.076424 77.373495
L 357.076958 77.373495
L 359.509512 77.358463
L 359.509512 77.268289
L 359.511381 76.545174
L 359.513251 76.545174
L 359.788445 76.520352
L 359.788445 76.45292
L 359.900072 76.308619
L 361.240794 76.289691
L 361.240794 76.214142
L 361.244666 76.07831
L 364.062306 76.005616
L 364.062306 75.97447
L 364.064442 75.803154
L 364.081266 75.803154
L 366.361602 75.691523
L 366.407668 74.30007
L 366.470291 74.30007
L 366.590597 74.236351
L 366.590597 74.202656
L 366.663235 73.813899
L 366.682996 73.813899
L 367.307492 73.717137
L 367.418451 72.493451
L 367.670679 72.403738
L 367.725424 72.081033
L 367.909021 71.973885
L 367.909021 71.973294
L 367.997948 71.70547
L 368.006761 71.70547
L 368.8477 71.608825
L 368.858115 71.431286
L 369.848735 71.334361
L 369.848735 71.334259
L 369.852207 71.268507
L 369.852207 71.268507
L 369.971044 71.221513
L 369.971044 71.167585
L 369.973047 71.044025
L 370.441585 70.963764
L 370.441585 70.941144
L 370.442119 70.848048
L 370.445591 70.848048
L 371.47253 70.746533
L 371.495897 70.53797
L 373.776366 70.457994
L 373.776366 70.436354
L 373.802003 69.489865
L 373.805475 69.489865
L 374.379898 69.405748
L 374.379898 69.383413
L 374.380699 69.251187
L 374.448797 69.251187
L 376.2877 69.144655
L 376.290771 68.435533
L 376.290771 68.435533
L 382.512491 68.335528
L 382.514627 68.036502
L 382.52077 68.036502
L 383.145265 67.926972
L 383.147401 67.838821
L 383.193601 67.838821
L 383.677762 67.730311
L 383.678429 67.643549
L 383.681634 67.643549
L 384.57892 67.558393
L 384.57892 67.549031
L 384.596279 67.425879
L 389.304495 67.410929
L 389.304495 67.324651
L 389.305163 67.222496
L 389.308501 67.222496
L 389.67289 67.118575
L 389.673424 66.990223
L 389.677029 66.990223
L 390.156784 66.914959
L 390.156784 66.912777
L 390.157986 66.327444
L 390.160923 66.327444
L 393.080175 66.218562
L 393.080175 66.218215
L 393.084181 66.019236
L 393.462056 65.909706
L 393.462056 65.909441
L 393.463124 65.79185
L 393.465528 65.79185
L 396.483187 65.695843
L 396.48706 65.14731
L 399.746399 65.052976
L 399.746933 64.921116
L 399.749737 64.921116
L 400.028938 64.838529
L 400.028938 64.810178
L 400.083015 64.699052
L 400.118399 64.699052
L 400.466365 64.67531
L 400.466365 64.603718
L 400.466765 64.219596
L 400.470103 64.219596
L 400.87495 64.185798
L 400.87495 64.124221
L 400.875885 63.978528
L 400.894312 63.978528
L 401.565006 63.868786
L 401.6303 63.420369
L 401.634172 63.420369
L 402.768732 63.401502
L 402.768732 63.310961
L 402.813196 61.537902
L 402.836696 61.537902
L 403.035248 61.490949
L 403.035248 61.444853
L 403.038719 60.905974
L 403.081848 60.905974
L 403.360781 60.83583
L 403.436089 60.056348
L 403.452646 60.056348
L 403.612742 59.961544
L 403.612742 59.955078
L 403.613677 59.351339
L 403.697664 59.351339
L 404.600692 59.258677
L 404.712185 58.746714
L 404.712185 58.746714
L 406.648561 58.685565
L 406.648561 58.661497
L 406.649095 58.546271
L 406.653902 58.546271
L 408.268884 58.453996
L 408.277163 58.264026
L 408.486797 58.186889
L 408.486797 58.162841
L 408.539139 58.029273
L 408.947991 57.970347
L 408.947991 57.93708
L 408.953332 57.545933
L 411.805154 57.531044
L 411.805154 57.444746
L 411.809294 57.310147
L 412.912742 57.274515
L 412.912742 57.266417
L 412.922623 55.965478
L 412.927029 55.965478
L 413.216778 55.964784
L 413.344161 55.828469
L 414.121008 55.730565
L 414.121408 55.627105
L 414.124747 55.627105
L 414.242916 55.525142
L 414.343327 54.454402
L 414.343327 54.454402
L 414.409955 54.353401
L 414.412492 54.145469
L 414.412492 54.145469
L 414.72 54.144
L 414.72 54.144
" clip-path="url(#pe09230bb57)" style="fill: none; stroke: #1f77b4; stroke-width: 1.5; stroke-linecap: square"/>
   </g>
   <g id="patch_3">
    <path d="M 57.6 307.584
L 57.6 41.472
" style="fill: none; stroke: #ffffff; stroke-width: 0.8; stroke-linejoin: miter; stroke-linecap: square"/>
   </g>
   <g id="patch_4">
    <path d="M 414.72 307.584
L 414.72 41.472
" style="fill: none; stroke: #ffffff; stroke-width: 0.8; stroke-linejoin: miter; stroke-linecap: square"/>
   </g>
   <g id="patch_5">
    <path d="M 57.6 307.584
L 414.72 307.584
" style="fill: none; stroke: #ffffff; stroke-width: 0.8; stroke-linejoin: miter; stroke-linecap: square"/>
   </g>
   <g id="patch_6">
    <path d="M 57.6 41.472
L 414.72 41.472
" style="fill: none; stroke: #ffffff; stroke-width: 0.8; stroke-linejoin: miter; stroke-linecap: square"/>
   </g>
   <g id="text_16">
    <!-- Estimated CO2 emissions from GitHub Actions -->
    <g style="fill: #ffffff" transform="translate(97.19625 22.034625) scale(0.12 -0.12)">
     <defs>
      <path id="DejaVuSans-45" d="M 628 4666
L 3578 4666
L 3578 4134
L 1259 4134
L 1259 2753
L 3481 2753
L 3481 2222
L 1259 2222
L 1259 531
L 3634 531
L 3634 0
L 628 0
L 628 4666
z
" transform="scale(0.015625)"/>
      <path id="DejaVuSans-73" d="M 2834 3397
L 2834 2853
Q 2591 2978 2328 3040
Q 2066 3103 1784 3103
Q 1356 3103 1142 2972
Q 928 2841 928 2578
Q 928 2378 1081 2264
Q 1234 2150 1697 2047
L 1894 2003
Q 2506 1872 2764 1633
Q 3022 1394 3022 966
Q 3022 478 2636 193
Q 2250 -91 1575 -91
Q 1294 -91 989 -36
Q 684 19 347 128
L 347 722
Q 666 556 975 473
Q 1284 391 1588 391
Q 1994 391 2212 530
Q 2431 669 2431 922
Q 2431 1156 2273 1281
Q 2116 1406 1581 1522
L 1381 1569
Q 847 1681 609 1914
Q 372 2147 372 2553
Q 372 3047 722 3315
Q 1072 3584 1716 3584
Q 2034 3584 2315 3537
Q 2597 3491 2834 3397
z
" transform="scale(0.015625)"/>
      <path id="DejaVuSans-74" d="M 1172 4494
L 1172 3500
L 2356 3500
L 2356 3053
L 1172 3053
L 1172 1153
Q 1172 725 1289 603
Q 1406 481 1766 481
L 2356 481
L 2356 0
L 1766 0
Q 1100 0 847 248
Q 594 497 594 1153
L 594 3053
L 172 3053
L 172 3500
L 594 3500
L 594 4494
L 1172 4494
z
" transform="scale(0.015625)"/>
      <path id="DejaVuSans-69" d="M 603 3500
L 1178 3500
L 1178 0
L 603 0
L 603 3500
z
M 603 4863
L 1178 4863
L 1178 4134
L 603 4134
L 603 4863
z
" transform="scale(0.015625)"/>
      <path id="DejaVuSans-6d" d="M 3328 2828
Q 3544 3216 3844 3400
Q 4144 3584 4550 3584
Q 5097 3584 5394 3201
Q 5691 2819 5691 2113
L 5691 0
L 5113 0
L 5113 2094
Q 5113 2597 4934 2840
Q 4756 3084 4391 3084
Q 3944 3084 3684 2787
Q 3425 2491 3425 1978
L 3425 0
L 2847 0
L 2847 2094
Q 2847 2600 2669 2842
Q 2491 3084 2119 3084
Q 1678 3084 1418 2786
Q 1159 2488 1159 1978
L 1159 0
L 581 0
L 581 3500
L 1159 3500
L 1159 2956
Q 1356 3278 1631 3431
Q 1906 3584 2284 3584
Q 2666 3584 2933 3390
Q 3200 3197 3328 2828
z
" transform="scale(0.015625)"/>
      <path id="DejaVuSans-64" d="M 2906 2969
L 2906 4863
L 3481 4863
L 3481 0
L 2906 0
L 2906 525
Q 2725 213 2448 61
Q 2172 -91 1784 -91
Q 1150 -91 751 415
Q 353 922 353 1747
Q 353 2572 751 3078
Q 1150 3584 1784 3584
Q 2172 3584 2448 3432
Q 2725 3281 2906 2969
z
M 947 1747
Q 947 1113 1208 752
Q 1469 391 1925 391
Q 2381 391 2643 752
Q 2906 1113 2906 1747
Q 2906 2381 2643 2742
Q 2381 3103 1925 3103
Q 1469 3103 1208 2742
Q 947 2381 947 1747
z
" transform="scale(0.015625)"/>
      <path id="DejaVuSans-20" transform="scale(0.015625)"/>
      <path id="DejaVuSans-6f" d="M 1959 3097
Q 1497 3097 1228 2736
Q 959 2375 959 1747
Q 959 1119 1226 758
Q 1494 397 1959 397
Q 2419 397 2687 759
Q 2956 1122 2956 1747
Q 2956 2369 2687 2733
Q 2419 3097 1959 3097
z
M 1959 3584
Q 2709 3584 3137 3096
Q 3566 2609 3566 1747
Q 3566 888 3137 398
Q 2709 -91 1959 -91
Q 1206 -91 779 398
Q 353 888 353 1747
Q 353 2609 779 3096
Q 1206 3584 1959 3584
z
" transform="scale(0.015625)"/>
      <path id="DejaVuSans-66" d="M 2375 4863
L 2375 4384
L 1825 4384
Q 1516 4384 1395 4259
Q 1275 4134 1275 3809
L 1275 3500
L 2222 3500
L 2222 3053
L 1275 3053
L 1275 0
L 697 0
L 697 3053
L 147 3053
L 147 3500
L 697 3500
L 697 3744
Q 697 4328 969 4595
Q 1241 4863 1831 4863
L 2375 4863
z
" transform="scale(0.015625)"/>
      <path id="DejaVuSans-72" d="M 2631 2963
Q 2534 3019 2420 3045
Q 2306 3072 2169 3072
Q 1681 3072 1420 2755
Q 1159 2438 1159 1844
L 1159 0
L 581 0
L 581 3500
L 1159 3500
L 1159 2956
Q 1341 3275 1631 3429
Q 1922 3584 2338 3584
Q 2397 3584 2469 3576
Q 2541 3569 2628 3553
L 2631 2963
z
" transform="scale(0.015625)"/>
      <path id="DejaVuSans-47" d="M 3809 666
L 3809 1919
L 2778 1919
L 2778 2438
L 4434 2438
L 4434 434
Q 4069 175 3628 42
Q 3188 -91 2688 -91
Q 1594 -91 976 548
Q 359 1188 359 2328
Q 359 3472 976 4111
Q 1594 4750 2688 4750
Q 3144 4750 3555 4637
Q 3966 4525 4313 4306
L 4313 3634
Q 3963 3931 3569 4081
Q 3175 4231 2741 4231
Q 1884 4231 1454 3753
Q 1025 3275 1025 2328
Q 1025 1384 1454 906
Q 1884 428 2741 428
Q 3075 428 3337 486
Q 3600 544 3809 666
z
" transform="scale(0.015625)"/>
      <path id="DejaVuSans-48" d="M 628 4666
L 1259 4666
L 1259 2753
L 3553 2753
L 3553 4666
L 4184 4666
L 4184 0
L 3553 0
L 3553 2222
L 1259 2222
L 1259 0
L 628 0
L 628 4666
z
" transform="scale(0.015625)"/>
      <path id="DejaVuSans-75" d="M 544 1381
L 544 3500
L 1119 3500
L 1119 1403
Q 1119 906 1312 657
Q 1506 409 1894 409
Q 2359 409 2629 706
Q 2900 1003 2900 1516
L 2900 3500
L 3475 3500
L 3475 0
L 2900 0
L 2900 538
Q 2691 219 2414 64
Q 2138 -91 1772 -91
Q 1169 -91 856 284
Q 544 659 544 1381
z
M 1991 3584
L 1991 3584
z
" transform="scale(0.015625)"/>
      <path id="DejaVuSans-62" d="M 3116 1747
Q 3116 2381 2855 2742
Q 2594 3103 2138 3103
Q 1681 3103 1420 2742
Q 1159 2381 1159 1747
Q 1159 1113 1420 752
Q 1681 391 2138 391
Q 2594 391 2855 752
Q 3116 1113 3116 1747
z
M 1159 2969
Q 1341 3281 1617 3432
Q 1894 3584 2278 3584
Q 2916 3584 3314 3078
Q 3713 2572 3713 1747
Q 3713 922 3314 415
Q 2916 -91 2278 -91
Q 1894 -91 1617 61
Q 1341 213 1159 525
L 1159 0
L 581 0
L 581 4863
L 1159 4863
L 1159 2969
z
" transform="scale(0.015625)"/>
      <path id="DejaVuSans-41" d="M 2188 4044
L 1331 1722
L 3047 1722
L 2188 4044
z
M 1831 4666
L 2547 4666
L 4325 0
L 3669 0
L 3244 1197
L 1141 1197
L 716 0
L 50 0
L 1831 4666
z
" transform="scale(0.015625)"/>
      <path id="DejaVuSans-63" d="M 3122 3366
L 3122 2828
Q 2878 2963 2633 3030
Q 2388 3097 2138 3097
Q 1578 3097 1268 2742
Q 959 2388 959 1747
Q 959 1106 1268 751
Q 1578 397 2138 397
Q 2388 397 2633 464
Q 2878 531 3122 666
L 3122 134
Q 2881 22 2623 -34
Q 2366 -91 2075 -91
Q 1284 -91 818 406
Q 353 903 353 1747
Q 353 2603 823 3093
Q 1294 3584 2113 3584
Q 2378 3584 2631 3529
Q 2884 3475 3122 3366
z
" transform="scale(0.015625)"/>
     </defs>
     <use xlink:href="#DejaVuSans-45"/>
     <use xlink:href="#DejaVuSans-73" x="63.183594"/>
     <use xlink:href="#DejaVuSans-74" x="115.283203"/>
     <use xlink:href="#DejaVuSans-69" x="154.492188"/>
     <use xlink:href="#DejaVuSans-6d" x="182.275391"/>
     <use xlink:href="#DejaVuSans-61" x="279.6875"/>
     <use xlink:href="#DejaVuSans-74" x="340.966797"/>
     <use xlink:href="#DejaVuSans-65" x="380.175781"/>
     <use xlink:href="#DejaVuSans-64" x="441.699219"/>
     <use xlink:href="#DejaVuSans-20" x="505.175781"/>
     <use xlink:href="#DejaVuSans-43" x="536.962891"/>
     <use xlink:href="#DejaVuSans-4f" x="606.787109"/>
     <use xlink:href="#DejaVuSans-32" x="685.498047"/>
     <use xlink:href="#DejaVuSans-20" x="749.121094"/>
     <use xlink:href="#DejaVuSans-65" x="780.908203"/>
     <use xlink:href="#DejaVuSans-6d" x="842.431641"/>
     <use xlink:href="#DejaVuSans-69" x="939.84375"/>
     <use xlink:href="#DejaVuSans-73" x="967.626953"/>
     <use xlink:href="#DejaVuSans-73" x="1019.726562"/>
     <use xlink:href="#DejaVuSans-69" x="1071.826172"/>
     <use xlink:href="#DejaVuSans-6f" x="1099.609375"/>
     <use xlink:href="#DejaVuSans-6e" x="1160.791016"/>
     <use xlink:href="#DejaVuSans-73" x="1224.169922"/>
     <use xlink:href="#DejaVuSans-20" x="1276.269531"/>
     <use xlink:href="#DejaVuSans-66" x="1308.056641"/>
     <use xlink:href="#DejaVuSans-72" x="1343.261719"/>
     <use xlink:href="#DejaVuSans-6f" x="1382.125"/>
     <use xlink:href="#DejaVuSans-6d" x="1443.306641"/>
     <use xlink:href="#DejaVuSans-20" x="1540.71875"/>
     <use xlink:href="#DejaVuSans-47" x="1572.505859"/>
     <use xlink:href="#DejaVuSans-69" x="1649.996094"/>
     <use xlink:href="#DejaVuSans-74" x="1677.779297"/>
     <use xlink:href="#DejaVuSans-48" x="1716.988281"/>
     <use xlink:href="#DejaVuSans-75" x="1792.183594"/>
     <use xlink:href="#DejaVuSans-62" x="1855.5625"/>
     <use xlink:href="#DejaVuSans-20" x="1919.039062"/>
     <use xlink:href="#DejaVuSans-41" x="1950.826172"/>
     <use xlink:href="#DejaVuSans-63" x="2017.484375"/>
     <use xlink:href="#DejaVuSans-74" x="2072.464844"/>
     <use xlink:href="#DejaVuSans-69" x="2111.673828"/>
     <use xlink:href="#DejaVuSans-6f" x="2139.457031"/>
     <use xlink:href="#DejaVuSans-6e" x="2200.638672"/>
     <use xlink:href="#DejaVuSans-73" x="2264.017578"/>
    </g>
    <!-- matplotlib/matplotlib -->
    <g style="fill: #ffffff" transform="translate(173.1075 35.472) scale(0.12 -0.12)">
     <defs>
      <path id="DejaVuSans-70" d="M 1159 525
L 1159 -1331
L 581 -1331
L 581 3500
L 1159 3500
L 1159 2969
Q 1341 3281 1617 3432
Q 1894 3584 2278 3584
Q 2916 3584 3314 3078
Q 3713 2572 3713 1747
Q 3713 922 3314 415
Q 2916 -91 2278 -91
Q 1894 -91 1617 61
Q 1341 213 1159 525
z
M 3116 1747
Q 3116 2381 2855 2742
Q 2594 3103 2138 3103
Q 1681 3103 1420 2742
Q 1159 2381 1159 1747
Q 1159 1113 1420 752
Q 1681 391 2138 391
Q 2594 391 2855 752
Q 3116 1113 3116 1747
z
" transform="scale(0.015625)"/>
      <path id="DejaVuSans-6c" d="M 603 4863
L 1178 4863
L 1178 0
L 603 0
L 603 4863
z
" transform="scale(0.015625)"/>
      <path id="DejaVuSans-2f" d="M 1625 4666
L 2156 4666
L 531 -594
L 0 -594
L 1625 4666
z
" transform="scale(0.015625)"/>
     </defs>
     <use xlink:href="#DejaVuSans-6d"/>
     <use xlink:href="#DejaVuSans-61" x="97.412109"/>
     <use xlink:href="#DejaVuSans-74" x="158.691406"/>
     <use xlink:href="#DejaVuSans-70" x="197.900391"/>
     <use xlink:href="#DejaVuSans-6c" x="261.376953"/>
     <use xlink:href="#DejaVuSans-6f" x="289.160156"/>
     <use xlink:href="#DejaVuSans-74" x="350.341797"/>
     <use xlink:href="#DejaVuSans-6c" x="389.550781"/>
     <use xlink:href="#DejaVuSans-69" x="417.333984"/>
     <use xlink:href="#DejaVuSans-62" x="445.117188"/>
     <use xlink:href="#DejaVuSans-2f" x="508.59375"/>
     <use xlink:href="#DejaVuSans-6d" x="542.285156"/>
     <use xlink:href="#DejaVuSans-61" x="639.697266"/>
     <use xlink:href="#DejaVuSans-74" x="700.976562"/>
     <use xlink:href="#DejaVuSans-70" x="740.185547"/>
     <use xlink:href="#DejaVuSans-6c" x="803.662109"/>
     <use xlink:href="#DejaVuSans-6f" x="831.445312"/>
     <use xlink:href="#DejaVuSans-74" x="892.626953"/>
     <use xlink:href="#DejaVuSans-6c" x="931.835938"/>
     <use xlink:href="#DejaVuSans-69" x="959.619141"/>
     <use xlink:href="#DejaVuSans-62" x="987.402344"/>
    </g>
   </g>
  </g>
 </g>
 <defs>
  <clipPath id="pe09230bb57">
   <rect x="57.6" y="41.472" width="357.12" height="266.112"/>
  </clipPath>
 </defs>
</svg>
